# xmcd
#
# Track frame offsets: 
#        150
#        14733
#        32056
#        53197
#        68364
#        89210
#        123016
#        150647
#        190043
#        224782
#        268678
#        284255
#
# Disc length: 3992 seconds
#
# Revision: 0
# Processed by: cddbd v1.5.2PL0 Copyright (c) Steve Scherf et al.
# Submitted via: ExactAudioCopy v0.95b3
#
DISCID=af0f960c
DTITLE=Jimi Hendrix  - TTG Studios (ATM 181) - Disc 2
DYEAR=1900
DGENRE=
TTITLE0=Jam #4
TTITLE1=Isabella
TTITLE2=Jam
TTITLE3=Jam
TTITLE4=Calling All Devil's Children
TTITLE5=Calling All Devil's Children
TTITLE6=Calling All Devil's Children
TTITLE7=Jam
TTITLE8=Hear My Freedom
TTITLE9=Electric Church
TTITLE10=Look Over Yonder
TTITLE11=The New Rising Sun
EXTD=
EXTT0=
EXTT1=
EXTT2=
EXTT3=
EXTT4=
EXTT5=
EXTT6=
EXTT7=
EXTT8=
EXTT9=
EXTT10=
EXTT11=
PLAYORDER=
